<?xml version="1.0" encoding="utf-8"?>
<!-- Generator: Adobe Illustrator 25.2.1, SVG Export Plug-In . SVG Version: 6.00 Build 0)  -->
<svg version="1.1" id="Ebene_1" xmlns="http://www.w3.org/2000/svg" xmlns:xlink="http://www.w3.org/1999/xlink" x="0px" y="0px"
	 viewBox="0 0 595.3 841.9" style="enable-background:new 0 0 595.3 841.9;" xml:space="preserve">
<style type="text/css">
	.st0{fill:none;stroke:#FFFFFF;stroke-miterlimit:10;}
</style>
<rect x="21.4" y="45.9" class="st0" width="92" height="42.4"/>
<circle class="st0" cx="21.3" cy="67.1" r="21.1"/>
<circle class="st0" cx="113.3" cy="67" r="21.1"/>
<rect x="46.7" y="21.4" class="st0" width="42.4" height="92"/>
<circle class="st0" cx="67.8" cy="113.5" r="21.1"/>
<circle class="st0" cx="67.8" cy="21.5" r="21.1"/>
<rect x="21.4" y="138" class="st0" width="92" height="42.4"/>
<circle class="st0" cx="21.3" cy="159.1" r="21.1"/>
<circle class="st0" cx="113.3" cy="159.1" r="21.1"/>
<rect x="46.6" y="113.6" class="st0" width="42.4" height="92"/>
<circle class="st0" cx="67.8" cy="205.7" r="21.1"/>
<rect x="113.4" y="46" class="st0" width="92" height="42.4"/>
<circle class="st0" cx="205.3" cy="67.1" r="21.1"/>
<rect x="138.6" y="21.5" class="st0" width="42.4" height="92"/>
<circle class="st0" cx="159.8" cy="113.6" r="21.1"/>
<circle class="st0" cx="159.8" cy="21.6" r="21.1"/>
<rect x="113.3" y="138" class="st0" width="92" height="42.4"/>
<circle class="st0" cx="205.2" cy="159.1" r="21.1"/>
<rect x="138.6" y="113.6" class="st0" width="42.4" height="92"/>
<circle class="st0" cx="159.7" cy="205.7" r="21.1"/>
<rect x="297.4" y="46" class="st0" width="92" height="42.4"/>
<circle class="st0" cx="389.4" cy="67.1" r="21.1"/>
<rect x="322.6" y="21.5" class="st0" width="42.4" height="92"/>
<circle class="st0" cx="343.9" cy="113.6" r="21.1"/>
<circle class="st0" cx="343.9" cy="21.6" r="21.1"/>
<rect x="297.4" y="138.1" class="st0" width="92" height="42.4"/>
<circle class="st0" cx="389.4" cy="159.2" r="21.1"/>
<rect x="322.6" y="113.6" class="st0" width="42.4" height="92"/>
<circle class="st0" cx="343.8" cy="205.8" r="21.1"/>
<rect x="205.4" y="46.1" class="st0" width="92" height="42.4"/>
<circle class="st0" cx="297.3" cy="67.2" r="21.1"/>
<rect x="230.7" y="21.6" class="st0" width="42.4" height="92"/>
<circle class="st0" cx="251.8" cy="113.7" r="21.1"/>
<circle class="st0" cx="251.8" cy="21.7" r="21.1"/>
<rect x="205.3" y="138.1" class="st0" width="92" height="42.4"/>
<circle class="st0" cx="297.3" cy="159.2" r="21.1"/>
<rect x="230.6" y="113.7" class="st0" width="42.4" height="92"/>
<circle class="st0" cx="251.8" cy="205.8" r="21.1"/>
<rect x="389.5" y="46" class="st0" width="92" height="42.4"/>
<circle class="st0" cx="481.5" cy="67.2" r="21.1"/>
<rect x="414.8" y="21.6" class="st0" width="42.4" height="92"/>
<circle class="st0" cx="436" cy="113.7" r="21.1"/>
<circle class="st0" cx="435.9" cy="21.7" r="21.1"/>
<rect x="389.5" y="138.1" class="st0" width="92" height="42.4"/>
<ellipse transform="matrix(0.3827 -0.9239 0.9239 0.3827 150.0608 543.025)" class="st0" cx="481.4" cy="159.2" rx="21.1" ry="21.1"/>
<rect x="414.8" y="113.6" class="st0" width="42.4" height="92"/>
<circle class="st0" cx="435.9" cy="205.8" r="21.1"/>
<rect x="21.4" y="229.9" class="st0" width="92" height="42.4"/>
<circle class="st0" cx="21.2" cy="251.1" r="21.1"/>
<circle class="st0" cx="113.3" cy="251.1" r="21.1"/>
<rect x="46.6" y="205.6" class="st0" width="42.4" height="92"/>
<circle class="st0" cx="67.8" cy="297.7" r="21.1"/>
<rect x="113.3" y="230" class="st0" width="92" height="42.4"/>
<circle class="st0" cx="205.2" cy="251.1" r="21.1"/>
<rect x="138.5" y="205.6" class="st0" width="42.4" height="92"/>
<circle class="st0" cx="159.7" cy="297.7" r="21.1"/>
<rect x="297.4" y="230" class="st0" width="92" height="42.4"/>
<circle class="st0" cx="389.4" cy="251.1" r="21.1"/>
<rect x="322.7" y="205.6" class="st0" width="42.4" height="92"/>
<circle class="st0" cx="343.8" cy="297.8" r="21.1"/>
<rect x="205.3" y="230.1" class="st0" width="92" height="42.4"/>
<circle class="st0" cx="297.3" cy="251.2" r="21.1"/>
<rect x="230.6" y="205.7" class="st0" width="42.4" height="92"/>
<circle class="st0" cx="251.8" cy="297.8" r="21.1"/>
<rect x="389.5" y="230.1" class="st0" width="92" height="42.4"/>
<ellipse transform="matrix(0.1891 -0.982 0.982 0.1891 143.6377 676.4213)" class="st0" cx="481.4" cy="251.2" rx="21.1" ry="21.1"/>
<rect x="414.7" y="205.6" class="st0" width="42.4" height="92"/>
<circle class="st0" cx="435.9" cy="297.8" r="21.1"/>
<rect x="481.5" y="46.1" class="st0" width="92" height="42.4"/>
<circle class="st0" cx="573.4" cy="67.2" r="21.1"/>
<rect x="506.8" y="21.6" class="st0" width="42.4" height="92"/>
<circle class="st0" cx="527.9" cy="113.7" r="21.1"/>
<circle class="st0" cx="527.9" cy="21.7" r="21.1"/>
<rect x="481.5" y="138.2" class="st0" width="92" height="42.4"/>
<circle class="st0" cx="573.4" cy="159.3" r="21.1"/>
<rect x="506.7" y="113.7" class="st0" width="42.4" height="92"/>
<circle class="st0" cx="527.8" cy="205.8" r="21.1"/>
<rect x="481.5" y="230.1" class="st0" width="92" height="42.4"/>
<circle class="st0" cx="573.4" cy="251.3" r="21.1"/>
<rect x="506.7" y="205.7" class="st0" width="42.4" height="92"/>
<circle class="st0" cx="527.8" cy="297.9" r="21.1"/>
</svg>
