<?xml version="1.0" encoding="utf-8"?>
<!-- Generator: Adobe Illustrator 25.2.1, SVG Export Plug-In . SVG Version: 6.00 Build 0)  -->
<svg version="1.1" id="Ebene_1" xmlns="http://www.w3.org/2000/svg" xmlns:xlink="http://www.w3.org/1999/xlink" x="0px" y="0px"
	 viewBox="0 0 348.2 379.4" style="enable-background:new 0 0 348.2 379.4;" xml:space="preserve">
<style type="text/css">
	.st0{fill:none;stroke:#FF0000;stroke-miterlimit:10;}
	.st1{fill:none;stroke:#FF0000;stroke-width:1;stroke-miterlimit:10.0003;}
</style>
<circle class="st0" cx="135.4" cy="54.8" r="21.1"/>
<rect x="206.2" y="54.9" class="st0" width="42.4" height="92"/>
<circle class="st0" cx="227.3" cy="54.9" r="21.1"/>
<circle class="st0" cx="272.9" cy="100.4" r="21.1"/>
<ellipse transform="matrix(0.1602 -0.9871 0.9871 0.1602 -115.3525 249.2404)" class="st0" cx="88.8" cy="192.4" rx="21.1" ry="21.1"/>
<rect x="89" y="171.2" class="st0" width="92" height="42.4"/>
<circle class="st0" cx="180.9" cy="192.5" r="21.1"/>
<rect x="114.2" y="146.9" class="st0" width="42.4" height="92"/>
<circle class="st0" cx="135.4" cy="239" r="21.1"/>
<circle class="st0" cx="135.3" cy="147" r="21.1"/>
<rect x="180.9" y="171.3" class="st0" width="92" height="42.4"/>
<rect x="180.8" y="79.1" class="st0" width="92" height="42.4"/>
<circle class="st0" cx="272.8" cy="192.5" r="21.1"/>
<rect x="206.2" y="146.9" class="st0" width="42.4" height="92"/>
<circle class="st0" cx="227.4" cy="239" r="21.1"/>
<circle class="st0" cx="227.4" cy="147" r="21.1"/>
<circle class="st0" cx="272.8" cy="284.6" r="21.1"/>
<circle class="st0" cx="180.7" cy="100.2" r="21.1"/>
</svg>
