<?xml version="1.0" encoding="utf-8"?>
<!-- Generator: Adobe Illustrator 25.2.1, SVG Export Plug-In . SVG Version: 6.00 Build 0)  -->
<svg version="1.1" id="Ebene_1" xmlns="http://www.w3.org/2000/svg" xmlns:xlink="http://www.w3.org/1999/xlink" x="0px" y="0px"
	 viewBox="0 0 534.2 554.9" style="enable-background:new 0 0 534.2 554.9;" xml:space="preserve">
<style type="text/css">
	.st0{fill:none;stroke:#FF0000;stroke-miterlimit:10;}
	.st1{fill:none;stroke:#FF0000;stroke-width:1;stroke-miterlimit:10.0003;}
</style>
<rect x="229.2" y="162.6" class="st0" width="92" height="42.4"/>
<ellipse transform="matrix(0.9871 -0.1602 0.1602 0.9871 -26.4804 39.1057)" class="st0" cx="229.3" cy="183.8" rx="21.1" ry="21.1"/>
<circle class="st0" cx="274.9" cy="230.3" r="21.1"/>
<circle class="st0" cx="321.3" cy="183.8" r="21.1"/>
<circle class="st0" cx="366.9" cy="230.3" r="21.1"/>
<rect x="137.2" y="162.6" class="st0" width="92" height="42.4"/>
<ellipse transform="matrix(0.9239 -0.3827 0.3827 0.9239 -59.8798 66.5218)" class="st1" cx="137.3" cy="183.8" rx="21.1" ry="21.1"/>
<circle class="st0" cx="182.8" cy="230.3" r="21.1"/>
<circle class="st0" cx="413.4" cy="275.7" r="21.1"/>
<rect x="229.2" y="254.6" class="st0" width="92" height="42.4"/>
<ellipse transform="matrix(0.9871 -0.1602 0.1602 0.9871 -41.2012 40.2924)" class="st0" cx="229.3" cy="275.7" rx="21.1" ry="21.1"/>
<rect x="253.6" y="230.2" class="st0" width="42.4" height="92"/>
<rect x="321.4" y="254.7" class="st0" width="92" height="42.4"/>
<circle class="st0" cx="321.3" cy="275.8" r="21.1"/>
<rect x="345.7" y="230.2" class="st0" width="42.4" height="92"/>
<rect x="161.6" y="230.2" class="st0" width="42.4" height="92"/>
<circle class="st0" cx="45.3" cy="91.7" r="21.1"/>
<rect x="69.5" y="46.2" class="st0" width="42.4" height="92"/>
<circle class="st0" cx="90.8" cy="138.3" r="21.1"/>
<circle class="st0" cx="90.8" cy="46.3" r="21.1"/>
<rect x="45.2" y="162.7" class="st0" width="92" height="42.4"/>
<circle class="st0" cx="45.3" cy="183.9" r="21.1"/>
<rect x="69.6" y="138.3" class="st0" width="42.4" height="92"/>
<circle class="st0" cx="90.9" cy="230.4" r="21.1"/>
<circle class="st0" cx="45.3" cy="275.9" r="21.1"/>
<circle class="st0" cx="458.9" cy="322.4" r="21.1"/>
<ellipse transform="matrix(0.9871 -0.1602 0.1602 0.9871 -55.9687 41.4989)" class="st0" cx="229.4" cy="367.9" rx="21.1" ry="21.1"/>
<circle class="st0" cx="274.9" cy="414.4" r="21.1"/>
<circle class="st0" cx="274.9" cy="322.4" r="21.1"/>
<ellipse transform="matrix(0.9871 -0.1602 0.1602 0.9871 -70.7215 42.6882)" class="st0" cx="229.4" cy="460" rx="21.1" ry="21.1"/>
<circle class="st0" cx="366.9" cy="322.5" r="21.1"/>
<rect x="137.2" y="346.7" class="st0" width="92" height="42.4"/>
<circle class="st0" cx="137.3" cy="368" r="21.1"/>
<rect x="161.6" y="322.4" class="st0" width="42.4" height="92"/>
<circle class="st0" cx="182.8" cy="414.5" r="21.1"/>
<circle class="st0" cx="182.9" cy="322.5" r="21.1"/>
<rect x="137.3" y="438.8" class="st0" width="92" height="42.4"/>
<ellipse transform="matrix(0.9239 -0.3827 0.3827 0.9239 -165.5806 87.5827)" class="st1" cx="137.4" cy="460" rx="21.1" ry="21.1"/>
<circle class="st0" cx="182.9" cy="506.5" r="21.1"/>
<rect x="45.3" y="346.8" class="st0" width="92" height="42.4"/>
<circle class="st0" cx="45.4" cy="368" r="21.1"/>
<rect x="69.6" y="322.4" class="st0" width="42.4" height="92"/>
<circle class="st0" cx="90.8" cy="414.5" r="21.1"/>
<circle class="st0" cx="90.8" cy="322.5" r="21.1"/>
<circle class="st0" cx="45.4" cy="460.1" r="21.1"/>
<rect x="69.7" y="414.5" class="st0" width="42.4" height="92"/>
<circle class="st0" cx="90.9" cy="506.6" r="21.1"/>
</svg>
