<?xml version="1.0" encoding="utf-8"?>
<!-- Generator: Adobe Illustrator 25.2.1, SVG Export Plug-In . SVG Version: 6.00 Build 0)  -->
<svg version="1.1" id="Ebene_1" xmlns="http://www.w3.org/2000/svg" xmlns:xlink="http://www.w3.org/1999/xlink" x="0px" y="0px"
	 viewBox="0 0 595.3 841.9" style="enable-background:new 0 0 595.3 841.9;" xml:space="preserve">
<style type="text/css">
	.st0{fill:none;stroke:#FFFFFF;stroke-miterlimit:10;}
</style>
<g>
	<rect x="61.4" y="107.6" class="st0" width="76.9" height="35.4"/>
	<circle class="st0" cx="61.3" cy="125.3" r="17.7"/>
	<circle class="st0" cx="138.2" cy="125.3" r="17.7"/>
	<rect x="82.5" y="87.2" class="st0" width="35.4" height="76.9"/>
	<circle class="st0" cx="100.2" cy="164.2" r="17.7"/>
	<circle class="st0" cx="100.2" cy="87.2" r="17.7"/>
	<rect x="61.4" y="184.6" class="st0" width="76.9" height="35.4"/>
	<circle class="st0" cx="61.3" cy="202.3" r="17.7"/>
	<circle class="st0" cx="138.2" cy="202.3" r="17.7"/>
	<rect x="82.4" y="164.2" class="st0" width="35.4" height="76.9"/>
	<circle class="st0" cx="100.2" cy="241.2" r="17.7"/>
	<rect x="138.3" y="107.7" class="st0" width="76.9" height="35.4"/>
	<circle class="st0" cx="215.2" cy="125.3" r="17.7"/>
	<rect x="159.4" y="87.2" class="st0" width="35.4" height="76.9"/>
	<circle class="st0" cx="177.1" cy="164.2" r="17.7"/>
	<circle class="st0" cx="177.1" cy="87.3" r="17.7"/>
	<rect x="138.2" y="184.6" class="st0" width="76.9" height="35.4"/>
	<circle class="st0" cx="215.1" cy="202.3" r="17.7"/>
	<rect x="159.4" y="164.2" class="st0" width="35.4" height="76.9"/>
	<circle class="st0" cx="177" cy="241.2" r="17.7"/>
	<rect x="292.2" y="107.7" class="st0" width="76.9" height="35.4"/>
	<circle class="st0" cx="369" cy="125.3" r="17.7"/>
	<rect x="313.2" y="87.2" class="st0" width="35.4" height="76.9"/>
	<circle class="st0" cx="331" cy="164.2" r="17.7"/>
	<circle class="st0" cx="331" cy="87.3" r="17.7"/>
	<rect x="292.2" y="184.7" class="st0" width="76.9" height="35.4"/>
	<circle class="st0" cx="369" cy="202.3" r="17.7"/>
	<rect x="313.2" y="164.2" class="st0" width="35.4" height="76.9"/>
	<circle class="st0" cx="330.9" cy="241.3" r="17.7"/>
	<rect x="215.2" y="107.7" class="st0" width="76.9" height="35.4"/>
	<circle class="st0" cx="292.1" cy="125.4" r="17.7"/>
	<rect x="236.3" y="87.2" class="st0" width="35.4" height="76.9"/>
	<circle class="st0" cx="254.1" cy="164.3" r="17.7"/>
	<circle class="st0" cx="254.1" cy="87.4" r="17.7"/>
	<rect x="215.2" y="184.7" class="st0" width="76.9" height="35.4"/>
	<circle class="st0" cx="292.1" cy="202.3" r="17.7"/>
	<rect x="236.3" y="164.3" class="st0" width="35.4" height="76.9"/>
	<circle class="st0" cx="254" cy="241.3" r="17.7"/>
	<rect x="369.2" y="107.7" class="st0" width="76.9" height="35.4"/>
	<circle class="st0" cx="446" cy="125.4" r="17.7"/>
	<rect x="390.3" y="87.3" class="st0" width="35.4" height="76.9"/>
	<circle class="st0" cx="408" cy="164.3" r="17.7"/>
	<circle class="st0" cx="407.9" cy="87.4" r="17.7"/>
	<rect x="369.1" y="184.7" class="st0" width="76.9" height="35.4"/>
	
		<ellipse transform="matrix(0.3827 -0.9239 0.9239 0.3827 88.3501 536.9202)" class="st0" cx="446" cy="202.3" rx="17.7" ry="17.7"/>
	<rect x="390.3" y="164.2" class="st0" width="35.4" height="76.9"/>
	<circle class="st0" cx="407.9" cy="241.3" r="17.7"/>
	<rect x="61.4" y="261.5" class="st0" width="76.9" height="35.4"/>
	<circle class="st0" cx="61.2" cy="279.2" r="17.7"/>
	<circle class="st0" cx="138.2" cy="279.2" r="17.7"/>
	<rect x="82.5" y="241.1" class="st0" width="35.4" height="76.9"/>
	<circle class="st0" cx="100.2" cy="318.1" r="17.7"/>
	<rect x="61.3" y="338.5" class="st0" width="76.9" height="35.4"/>
	<circle class="st0" cx="61.2" cy="356.1" r="17.7"/>
	<circle class="st0" cx="138.1" cy="356.1" r="17.7"/>
	<rect x="82.4" y="318" class="st0" width="35.4" height="76.9"/>
	<circle class="st0" cx="100.1" cy="395" r="17.7"/>
	<rect x="138.2" y="261.5" class="st0" width="76.9" height="35.4"/>
	<circle class="st0" cx="215.1" cy="279.2" r="17.7"/>
	<rect x="159.3" y="241.1" class="st0" width="35.4" height="76.9"/>
	<circle class="st0" cx="177" cy="318.1" r="17.7"/>
	<rect x="138.2" y="338.5" class="st0" width="76.9" height="35.4"/>
	<circle class="st0" cx="215.1" cy="356.2" r="17.7"/>
	<rect x="159.3" y="318.1" class="st0" width="35.4" height="76.9"/>
	<circle class="st0" cx="177" cy="395.1" r="17.7"/>
	<rect x="292.2" y="261.5" class="st0" width="76.9" height="35.4"/>
	<circle class="st0" cx="369" cy="279.2" r="17.7"/>
	<rect x="313.2" y="241.1" class="st0" width="35.4" height="76.9"/>
	<circle class="st0" cx="330.9" cy="318.2" r="17.7"/>
	<rect x="292.1" y="338.5" class="st0" width="76.9" height="35.4"/>
	<circle class="st0" cx="368.9" cy="356.2" r="17.7"/>
	<rect x="313.2" y="318.1" class="st0" width="35.4" height="76.9"/>
	<circle class="st0" cx="330.9" cy="395.1" r="17.7"/>
	<rect x="215.2" y="261.6" class="st0" width="76.9" height="35.4"/>
	<circle class="st0" cx="292.1" cy="279.3" r="17.7"/>
	<rect x="236.3" y="241.2" class="st0" width="35.4" height="76.9"/>
	<circle class="st0" cx="254" cy="318.2" r="17.7"/>
	<rect x="215.2" y="338.5" class="st0" width="76.9" height="35.4"/>
	<circle class="st0" cx="292" cy="356.3" r="17.7"/>
	<rect x="236.3" y="318.2" class="st0" width="35.4" height="76.9"/>
	<circle class="st0" cx="254" cy="395.2" r="17.7"/>
	<rect x="369.1" y="261.6" class="st0" width="76.9" height="35.4"/>
	<ellipse transform="matrix(0.1891 -0.982 0.982 0.1891 87.378 664.3752)" class="st0" cx="446" cy="279.3" rx="17.7" ry="17.7"/>
	<rect x="390.2" y="241.1" class="st0" width="35.4" height="76.9"/>
	<circle class="st0" cx="407.9" cy="318.2" r="17.7"/>
	<rect x="369.1" y="338.5" class="st0" width="76.9" height="35.4"/>
	<ellipse transform="matrix(0.1602 -0.9871 0.9871 0.1602 22.825 739.4193)" class="st0" cx="446" cy="356.3" rx="17.7" ry="17.7"/>
	<rect x="390.2" y="318.2" class="st0" width="35.4" height="76.9"/>
	<circle class="st0" cx="407.8" cy="395.2" r="17.7"/>
	<rect x="446" y="107.7" class="st0" width="76.9" height="35.4"/>
	<circle class="st0" cx="522.9" cy="125.4" r="17.7"/>
	<rect x="467.2" y="87.3" class="st0" width="35.4" height="76.9"/>
	<circle class="st0" cx="484.9" cy="164.3" r="17.7"/>
	<circle class="st0" cx="484.9" cy="87.4" r="17.7"/>
	<rect x="446" y="184.8" class="st0" width="76.9" height="35.4"/>
	<circle class="st0" cx="522.9" cy="202.4" r="17.7"/>
	<rect x="467.1" y="164.3" class="st0" width="35.4" height="76.9"/>
	<circle class="st0" cx="484.8" cy="241.3" r="17.7"/>
	<rect x="446" y="261.6" class="st0" width="76.9" height="35.4"/>
	<circle class="st0" cx="522.9" cy="279.4" r="17.7"/>
	<rect x="467.1" y="241.2" class="st0" width="35.4" height="76.9"/>
	<circle class="st0" cx="484.8" cy="318.3" r="17.7"/>
	<rect x="446" y="338.6" class="st0" width="76.9" height="35.4"/>
	<circle class="st0" cx="522.8" cy="356.3" r="17.7"/>
	<rect x="467" y="318.2" class="st0" width="35.4" height="76.9"/>
	<circle class="st0" cx="484.8" cy="395.2" r="17.7"/>
</g>
</svg>
