<?xml version="1.0" encoding="utf-8"?>
<!-- Generator: Adobe Illustrator 25.2.1, SVG Export Plug-In . SVG Version: 6.00 Build 0)  -->
<svg version="1.1" id="Ebene_1" xmlns="http://www.w3.org/2000/svg" xmlns:xlink="http://www.w3.org/1999/xlink" x="0px" y="0px"
	 viewBox="0 0 637.7 652.1" style="enable-background:new 0 0 637.7 652.1;" xml:space="preserve">
<style type="text/css">
	.st0{fill:none;stroke:#FF0000;stroke-miterlimit:10;}
	.st1{fill:none;stroke:#FF0000;stroke-width:1;stroke-miterlimit:10.0002;}
	.st2{fill:none;stroke:#FF0000;stroke-width:1;stroke-miterlimit:10.0006;}
</style>
<rect x="38.5" y="258.8" class="st0" width="92" height="42.4"/>
<circle class="st0" cx="38.4" cy="280.1" r="21.1"/>
<ellipse class="st1" cx="130.4" cy="280" rx="21.1" ry="21.1"/>
<rect x="63.8" y="234.4" class="st0" width="42.4" height="92"/>
<circle class="st0" cx="85" cy="234.5" r="21.1"/>
<circle class="st0" cx="222.5" cy="280.1" r="21.1"/>
<rect x="155.8" y="234.5" class="st0" width="42.4" height="92"/>
<circle class="st0" cx="177" cy="234.6" r="21.1"/>
<ellipse class="st1" cx="407.5" cy="280.1" rx="21.1" ry="21.1"/>
<rect x="222.6" y="259" class="st0" width="92" height="42.4"/>
<circle class="st0" cx="314.5" cy="280.2" r="21.1"/>
<rect x="247.8" y="234.5" class="st0" width="42.4" height="92"/>
<circle class="st0" cx="269" cy="234.7" r="21.1"/>
<rect x="406.6" y="259" class="st0" width="92" height="42.4"/>
<circle class="st0" cx="498.5" cy="280.2" r="21.1"/>
<rect x="431.9" y="234.6" class="st0" width="42.4" height="92"/>
<circle class="st0" cx="453.1" cy="234.7" r="21.1"/>
<circle class="st0" cx="85" cy="326.6" r="21.1"/>
<circle class="st0" cx="177" cy="326.7" r="21.1"/>
<circle class="st0" cx="361" cy="326.7" r="21.1"/>
<circle class="st0" cx="269" cy="326.8" r="21.1"/>
<circle class="st0" cx="453.1" cy="326.8" r="21.1"/>
<circle class="st0" cx="131.5" cy="95.9" r="21.1"/>
<circle class="st0" cx="177" cy="142.5" r="21.1"/>
<circle class="st0" cx="131.5" cy="188.1" r="21.1"/>
<rect x="155.8" y="142.5" class="st0" width="42.4" height="92"/>
<ellipse class="st1" cx="314.5" cy="372.2" rx="21.1" ry="21.1"/>
<circle class="st0" cx="268.9" cy="418.7" r="21.1"/>
<ellipse transform="matrix(0.1602 -0.9871 0.9871 0.1602 -194.2446 700.3308)" class="st1" cx="314.5" cy="464.3" rx="21.1" ry="21.1"/>
<rect x="314.6" y="351" class="st0" width="92" height="42.4"/>
<circle class="st0" cx="406.5" cy="372.3" r="21.1"/>
<rect x="339.8" y="326.7" class="st0" width="42.4" height="92"/>
<circle class="st0" cx="361" cy="418.8" r="21.1"/>
<rect x="314.5" y="443.1" class="st0" width="92" height="42.4"/>
<ellipse transform="matrix(0.3827 -0.9239 0.9239 0.3827 -177.9774 662.1791)" class="st2" cx="406.5" cy="464.3" rx="21.1" ry="21.1"/>
<circle class="st0" cx="360.9" cy="510.8" r="21.1"/>
<rect x="130.5" y="259" class="st0" width="92" height="42.4"/>
<rect x="314.6" y="259" class="st0" width="92" height="42.4"/>
<rect x="247.8" y="326.7" class="st0" width="42.4" height="92"/>
</svg>
