<?xml version="1.0" encoding="utf-8"?>
<!-- Generator: Adobe Illustrator 25.2.1, SVG Export Plug-In . SVG Version: 6.00 Build 0)  -->
<svg version="1.1" id="Ebene_1" xmlns="http://www.w3.org/2000/svg" xmlns:xlink="http://www.w3.org/1999/xlink" x="0px" y="0px"
	 viewBox="0 0 637.7 652.1" style="enable-background:new 0 0 637.7 652.1;" xml:space="preserve">
<style type="text/css">
	.st0{fill:none;stroke:#FF0000;stroke-miterlimit:10;}
	.st1{fill:none;stroke:#FF0000;stroke-width:1;stroke-miterlimit:10.0003;}
</style>
<rect x="38.5" y="258.8" class="st0" width="92" height="42.4"/>
<circle class="st0" cx="38.4" cy="280.1" r="21.1"/>
<ellipse transform="matrix(0.1602 -0.9871 0.9871 0.1602 -166.8863 363.8732)" class="st0" cx="130.4" cy="280" rx="21.1" ry="21.1"/>
<rect x="63.8" y="234.4" class="st0" width="42.4" height="92"/>
<circle class="st0" cx="85" cy="234.5" r="21.1"/>
<circle class="st0" cx="222.5" cy="280.1" r="21.1"/>
<rect x="155.8" y="234.5" class="st0" width="42.4" height="92"/>
<circle class="st0" cx="177" cy="234.6" r="21.1"/>
<rect x="314.6" y="258.9" class="st0" width="92" height="42.4"/>
<ellipse transform="matrix(0.1602 -0.9871 0.9871 0.1602 64.8887 636.492)" class="st0" cx="406.5" cy="280.1" rx="21.1" ry="21.1"/>
<rect x="339.8" y="234.5" class="st0" width="42.4" height="92"/>
<circle class="st0" cx="361" cy="234.6" r="21.1"/>
<rect x="222.6" y="259" class="st0" width="92" height="42.4"/>
<circle class="st0" cx="314.5" cy="280.2" r="21.1"/>
<rect x="247.8" y="234.5" class="st0" width="42.4" height="92"/>
<circle class="st0" cx="269" cy="234.7" r="21.1"/>
<rect x="406.7" y="258.9" class="st0" width="92" height="42.4"/>
<circle class="st0" cx="498.6" cy="280.2" r="21.1"/>
<rect x="431.9" y="234.6" class="st0" width="42.4" height="92"/>
<circle class="st0" cx="453" cy="234.7" r="21.1"/>
<rect x="498.6" y="259" class="st0" width="92" height="42.4"/>
<circle class="st0" cx="590.5" cy="280.2" r="21.1"/>
<rect x="523.9" y="234.6" class="st0" width="42.4" height="92"/>
<circle class="st0" cx="545.1" cy="234.7" r="21.1"/>
<rect x="38.5" y="350.9" class="st0" width="92" height="42.4"/>
<circle class="st0" cx="38.4" cy="372.2" r="21.1"/>
<ellipse transform="matrix(0.1602 -0.9871 0.9871 0.1602 -257.7331 441.2103)" class="st0" cx="130.4" cy="372.1" rx="21.1" ry="21.1"/>
<rect x="63.8" y="326.5" class="st0" width="42.4" height="92"/>
<circle class="st0" cx="85" cy="326.6" r="21.1"/>
<rect x="130.5" y="351" class="st0" width="92" height="42.4"/>
<circle class="st0" cx="222.5" cy="372.2" r="21.1"/>
<rect x="155.8" y="326.6" class="st0" width="42.4" height="92"/>
<circle class="st0" cx="177" cy="326.7" r="21.1"/>
<ellipse transform="matrix(0.1602 -0.9871 0.9871 0.1602 -25.9581 713.829)" class="st0" cx="406.5" cy="372.2" rx="21.1" ry="21.1"/>
<rect x="339.8" y="326.6" class="st0" width="42.4" height="92"/>
<circle class="st0" cx="361" cy="326.7" r="21.1"/>
<rect x="222.6" y="351.1" class="st0" width="92" height="42.4"/>
<circle class="st0" cx="314.5" cy="372.3" r="21.1"/>
<rect x="247.8" y="326.6" class="st0" width="42.4" height="92"/>
<circle class="st0" cx="269" cy="326.8" r="21.1"/>
<rect x="406.7" y="351" class="st0" width="92" height="42.4"/>
<circle class="st0" cx="498.6" cy="372.3" r="21.1"/>
<rect x="431.9" y="326.7" class="st0" width="42.4" height="92"/>
<circle class="st0" cx="453" cy="326.8" r="21.1"/>
<rect x="498.6" y="351.1" class="st0" width="92" height="42.4"/>
<circle class="st0" cx="590.5" cy="372.3" r="21.1"/>
<rect x="523.9" y="326.7" class="st0" width="42.4" height="92"/>
<circle class="st0" cx="545.1" cy="326.8" r="21.1"/>
<circle class="st0" cx="85" cy="418.7" r="21.1"/>
<circle class="st0" cx="177" cy="418.8" r="21.1"/>
<circle class="st0" cx="361" cy="418.8" r="21.1"/>
<circle class="st0" cx="269" cy="418.9" r="21.1"/>
<circle class="st0" cx="453" cy="418.9" r="21.1"/>
<circle class="st0" cx="545.1" cy="418.9" r="21.1"/>
<rect x="315.4" y="166.8" class="st0" width="92" height="42.4"/>
<ellipse transform="matrix(0.9871 -0.1602 0.1602 0.9871 -26.038 52.9633)" class="st0" cx="315.5" cy="188" rx="21.1" ry="21.1"/>
<circle class="st0" cx="407.5" cy="188" r="21.1"/>
<ellipse transform="matrix(0.9239 -0.3827 0.3827 0.9239 -54.9213 99.8185)" class="st1" cx="223.4" cy="188" rx="21.1" ry="21.1"/>
<circle class="st0" cx="131.5" cy="95.9" r="21.1"/>
<rect x="155.7" y="50.4" class="st0" width="42.4" height="92"/>
<circle class="st0" cx="177" cy="142.5" r="21.1"/>
<circle class="st0" cx="177" cy="50.5" r="21.1"/>
<rect x="131.4" y="166.9" class="st0" width="92" height="42.4"/>
<circle class="st0" cx="131.5" cy="188.1" r="21.1"/>
<rect x="155.8" y="142.5" class="st0" width="42.4" height="92"/>
<ellipse transform="matrix(0.1602 -0.9871 0.9871 0.1602 -194.1255 700.1985)" class="st0" cx="314.4" cy="464.2" rx="21.1" ry="21.1"/>
<circle class="st0" cx="268.9" cy="510.7" r="21.1"/>
<ellipse transform="matrix(0.1602 -0.9871 0.9871 0.1602 -285.0363 777.5457)" class="st0" cx="314.4" cy="556.3" rx="21.1" ry="21.1"/>
<rect x="314.6" y="443" class="st0" width="92" height="42.4"/>
<circle class="st0" cx="406.5" cy="464.3" r="21.1"/>
<rect x="339.8" y="418.7" class="st0" width="42.4" height="92"/>
<circle class="st0" cx="361" cy="510.8" r="21.1"/>
<rect x="314.5" y="535.1" class="st0" width="92" height="42.4"/>
<ellipse transform="matrix(0.3827 -0.9239 0.9239 0.3827 -263.0073 718.9409)" class="st1" cx="406.5" cy="556.3" rx="21.1" ry="21.1"/>
<circle class="st0" cx="360.9" cy="602.8" r="21.1"/>
<rect x="406.5" y="443.1" class="st0" width="92" height="42.4"/>
<circle class="st0" cx="498.4" cy="464.3" r="21.1"/>
<rect x="431.8" y="418.7" class="st0" width="42.4" height="92"/>
<circle class="st0" cx="453" cy="510.8" r="21.1"/>
<circle class="st0" cx="498.4" cy="556.4" r="21.1"/>
<rect x="431.7" y="510.8" class="st0" width="42.4" height="92"/>
<circle class="st0" cx="452.9" cy="602.9" r="21.1"/>
</svg>
