<?xml version="1.0" encoding="utf-8"?>
<!-- Generator: Adobe Illustrator 25.2.1, SVG Export Plug-In . SVG Version: 6.00 Build 0)  -->
<svg version="1.1" id="Ebene_1" xmlns="http://www.w3.org/2000/svg" xmlns:xlink="http://www.w3.org/1999/xlink" x="0px" y="0px"
	 viewBox="0 0 348.2 379.4" style="enable-background:new 0 0 348.2 379.4;" xml:space="preserve">
<style type="text/css">
	.st0{fill:none;stroke:#FF0000;stroke-miterlimit:10;}
	.st1{fill:none;stroke:#FF0000;stroke-width:1;stroke-miterlimit:10.0003;}
</style>
<rect x="37.2" y="60.3" class="st0" width="92" height="42.4"/>
<ellipse transform="matrix(0.1602 -0.9871 0.9871 0.1602 27.9013 195.8721)" class="st0" cx="129.1" cy="81.5" rx="21.1" ry="21.1"/>
<circle class="st0" cx="37.1" cy="81.6" r="21.1"/>
<rect x="129.3" y="60.3" class="st0" width="92" height="42.4"/>
<circle class="st0" cx="221.2" cy="81.6" r="21.1"/>
<rect x="154.5" y="36" class="st0" width="42.4" height="92"/>
<circle class="st0" cx="175.6" cy="36.1" r="21.1"/>
<rect x="221.2" y="60.4" class="st0" width="92" height="42.4"/>
<circle class="st0" cx="313.1" cy="81.6" r="21.1"/>
<rect x="246.5" y="36" class="st0" width="42.4" height="92"/>
<circle class="st0" cx="267.7" cy="36.1" r="21.1"/>
<ellipse transform="matrix(0.1602 -0.9871 0.9871 0.1602 -62.9455 273.2091)" class="st0" cx="129.1" cy="173.6" rx="21.1" ry="21.1"/>
<circle class="st0" cx="37.1" cy="173.7" r="21.1"/>
<rect x="129.3" y="152.4" class="st0" width="92" height="42.4"/>
<circle class="st0" cx="221.2" cy="173.7" r="21.1"/>
<rect x="154.5" y="128.1" class="st0" width="42.4" height="92"/>
<circle class="st0" cx="175.6" cy="128.2" r="21.1"/>
<rect x="221.2" y="152.5" class="st0" width="92" height="42.4"/>
<circle class="st0" cx="313.1" cy="173.7" r="21.1"/>
<rect x="246.5" y="128.1" class="st0" width="42.4" height="92"/>
<circle class="st0" cx="267.7" cy="128.2" r="21.1"/>
<circle class="st0" cx="83.6" cy="220.2" r="21.1"/>
<circle class="st0" cx="175.6" cy="220.3" r="21.1"/>
<circle class="st0" cx="267.7" cy="220.3" r="21.1"/>
<ellipse transform="matrix(0.1602 -0.9871 0.9871 0.1602 -231.1129 259.5786)" class="st0" cx="37" cy="265.6" rx="21.1" ry="21.1"/>
<circle class="st0" cx="129.1" cy="265.7" r="21.1"/>
<rect x="62.4" y="220.1" class="st0" width="42.4" height="92"/>
<circle class="st0" cx="83.6" cy="312.2" r="21.1"/>
<rect x="129.1" y="244.5" class="st0" width="92" height="42.4"/>
<circle class="st0" cx="221" cy="265.7" r="21.1"/>
<rect x="154.4" y="220.1" class="st0" width="42.4" height="92"/>
<circle class="st0" cx="175.6" cy="312.2" r="21.1"/>
</svg>
