<?xml version="1.0" encoding="utf-8"?>
<!-- Generator: Adobe Illustrator 25.2.1, SVG Export Plug-In . SVG Version: 6.00 Build 0)  -->
<svg version="1.1" id="Ebene_1" xmlns="http://www.w3.org/2000/svg" xmlns:xlink="http://www.w3.org/1999/xlink" x="0px" y="0px"
	 viewBox="0 0 595.3 841.9" style="enable-background:new 0 0 595.3 841.9;" xml:space="preserve">
<style type="text/css">
	.st0{fill:none;stroke:#FFFFFF;stroke-miterlimit:10;}
</style>
<g>
	<rect x="7.7" y="32.3" class="st0" width="97.1" height="44.7"/>
	<circle class="st0" cx="7.6" cy="54.7" r="22.3"/>
	<circle class="st0" cx="104.7" cy="54.6" r="22.3"/>
	
		<rect x="8.2" y="32.8" transform="matrix(6.123234e-17 -1 1 6.123234e-17 1.6184 111.8215)" class="st0" width="97.1" height="44.7"/>
	<circle class="st0" cx="56.7" cy="103.7" r="22.3"/>
	<circle class="st0" cx="56.7" cy="6.6" r="22.3"/>
	<rect x="7.7" y="129.5" class="st0" width="97.1" height="44.7"/>
	<circle class="st0" cx="7.6" cy="151.8" r="22.3"/>
	<circle class="st0" cx="104.7" cy="151.8" r="22.3"/>
	
		<rect x="8.1" y="129.9" transform="matrix(6.123234e-17 -1 1 6.123234e-17 -95.6018 208.9219)" class="st0" width="97.1" height="44.7"/>
	<circle class="st0" cx="56.7" cy="200.9" r="22.3"/>
	<rect x="104.8" y="32.4" class="st0" width="97.1" height="44.7"/>
	<circle class="st0" cx="201.8" cy="54.7" r="22.3"/>
	
		<rect x="105.2" y="32.8" transform="matrix(6.123234e-17 -1 1 6.123234e-17 98.6191 208.9269)" class="st0" width="97.1" height="44.7"/>
	<circle class="st0" cx="153.8" cy="103.8" r="22.3"/>
	<circle class="st0" cx="153.8" cy="6.7" r="22.3"/>
	<rect x="104.7" y="129.5" class="st0" width="97.1" height="44.7"/>
	<circle class="st0" cx="201.7" cy="151.8" r="22.3"/>
	
		<rect x="105.2" y="130" transform="matrix(6.123234e-17 -1 1 6.123234e-17 1.399 306.0273)" class="st0" width="97.1" height="44.7"/>
	<circle class="st0" cx="153.7" cy="200.9" r="22.3"/>
	<rect x="299" y="32.4" class="st0" width="97.1" height="44.7"/>
	<circle class="st0" cx="396" cy="54.7" r="22.3"/>
	
		<rect x="299.5" y="32.8" transform="matrix(6.123234e-17 -1 1 6.123234e-17 292.8036 403.1844)" class="st0" width="97.1" height="44.7"/>
	<circle class="st0" cx="348" cy="103.8" r="22.3"/>
	<circle class="st0" cx="348" cy="6.7" r="22.3"/>
	<rect x="299" y="129.6" class="st0" width="97.1" height="44.7"/>
	<circle class="st0" cx="396" cy="151.9" r="22.3"/>
	
		<rect x="299.4" y="130" transform="matrix(6.123234e-17 -1 1 6.123234e-17 195.5835 500.2848)" class="st0" width="97.1" height="44.7"/>
	<circle class="st0" cx="347.9" cy="201" r="22.3"/>
	<rect x="201.9" y="32.5" class="st0" width="97.1" height="44.7"/>
	<circle class="st0" cx="298.9" cy="54.8" r="22.3"/>
	
		<rect x="202.4" y="32.9" transform="matrix(6.123234e-17 -1 1 6.123234e-17 195.6422 306.1278)" class="st0" width="97.1" height="44.7"/>
	<circle class="st0" cx="250.9" cy="103.9" r="22.3"/>
	<circle class="st0" cx="250.9" cy="6.8" r="22.3"/>
	<rect x="201.8" y="129.6" class="st0" width="97.1" height="44.7"/>
	<circle class="st0" cx="298.9" cy="151.9" r="22.3"/>
	
		<rect x="202.3" y="130.1" transform="matrix(6.123234e-17 -1 1 6.123234e-17 98.4221 403.2281)" class="st0" width="97.1" height="44.7"/>
	<circle class="st0" cx="250.8" cy="201" r="22.3"/>
	<rect x="396.2" y="32.4" class="st0" width="97.1" height="44.7"/>
	<circle class="st0" cx="493.2" cy="54.8" r="22.3"/>
	
		<rect x="396.6" y="32.9" transform="matrix(6.123234e-17 -1 1 6.123234e-17 389.9225 500.3877)" class="st0" width="97.1" height="44.7"/>
	<circle class="st0" cx="445.2" cy="103.9" r="22.3"/>
	<circle class="st0" cx="445.1" cy="6.8" r="22.3"/>
	<rect x="396.1" y="129.6" class="st0" width="97.1" height="44.7"/>
	<circle class="st0" cx="493.1" cy="151.9" r="22.3"/>
	
		<rect x="396.6" y="130.1" transform="matrix(6.123234e-17 -1 1 6.123234e-17 292.7024 597.4881)" class="st0" width="97.1" height="44.7"/>
	<circle class="st0" cx="445.1" cy="201" r="22.3"/>
	<rect x="7.7" y="226.5" class="st0" width="97.1" height="44.7"/>
	<circle class="st0" cx="7.5" cy="248.9" r="22.3"/>
	<circle class="st0" cx="104.7" cy="248.9" r="22.3"/>
	
		<rect x="8.1" y="227" transform="matrix(6.123234e-17 -1 1 6.123234e-17 -192.6729 305.9899)" class="st0" width="97.1" height="44.7"/>
	<circle class="st0" cx="56.7" cy="298" r="22.3"/>
	<rect x="7.6" y="323.7" class="st0" width="97.1" height="44.7"/>
	<circle class="st0" cx="7.5" cy="346" r="22.3"/>
	<circle class="st0" cx="104.6" cy="346" r="22.3"/>
	
		<rect x="8.1" y="324.1" transform="matrix(6.123234e-17 -1 1 6.123234e-17 -289.893 403.0902)" class="st0" width="97.1" height="44.7"/>
	<circle class="st0" cx="56.6" cy="395.1" r="22.3"/>
	<rect x="104.7" y="226.6" class="st0" width="97.1" height="44.7"/>
	<circle class="st0" cx="201.7" cy="248.9" r="22.3"/>
	
		<rect x="105.2" y="227" transform="matrix(6.123234e-17 -1 1 6.123234e-17 -95.6721 403.0953)" class="st0" width="97.1" height="44.7"/>
	<circle class="st0" cx="153.7" cy="298" r="22.3"/>
	<rect x="104.7" y="323.8" class="st0" width="97.1" height="44.7"/>
	<circle class="st0" cx="201.7" cy="346.1" r="22.3"/>
	
		<rect x="105.1" y="324.2" transform="matrix(6.123234e-17 -1 1 6.123234e-17 -192.8923 500.1957)" class="st0" width="97.1" height="44.7"/>
	<circle class="st0" cx="153.7" cy="395.2" r="22.3"/>
	<rect x="299" y="226.6" class="st0" width="97.1" height="44.7"/>
	<circle class="st0" cx="396" cy="248.9" r="22.3"/>
	
		<rect x="299.4" y="227.1" transform="matrix(6.123234e-17 -1 1 6.123234e-17 98.5124 597.3528)" class="st0" width="97.1" height="44.7"/>
	<circle class="st0" cx="347.9" cy="298.1" r="22.3"/>
	<rect x="298.9" y="323.8" class="st0" width="97.1" height="44.7"/>
	<circle class="st0" cx="395.9" cy="346.1" r="22.3"/>
	
		<rect x="299.3" y="324.2" transform="matrix(6.123234e-17 -1 1 6.123234e-17 1.2923 694.4532)" class="st0" width="97.1" height="44.7"/>
	<circle class="st0" cx="347.9" cy="395.2" r="22.3"/>
	<rect x="201.8" y="226.7" class="st0" width="97.1" height="44.7"/>
	<circle class="st0" cx="298.9" cy="249" r="22.3"/>
	
		<rect x="202.3" y="227.1" transform="matrix(6.123234e-17 -1 1 6.123234e-17 1.351 500.2961)" class="st0" width="97.1" height="44.7"/>
	<circle class="st0" cx="250.8" cy="298.1" r="22.3"/>
	<rect x="201.8" y="323.8" class="st0" width="97.1" height="44.7"/>
	<circle class="st0" cx="298.8" cy="346.2" r="22.3"/>
	
		<rect x="202.2" y="324.3" transform="matrix(6.123234e-17 -1 1 6.123234e-17 -95.8691 597.3965)" class="st0" width="97.1" height="44.7"/>
	<circle class="st0" cx="250.8" cy="395.3" r="22.3"/>
	<rect x="396.1" y="226.7" class="st0" width="97.1" height="44.7"/>
	<circle class="st0" cx="493.1" cy="249" r="22.3"/>
	
		<rect x="396.6" y="227.1" transform="matrix(6.123234e-17 -1 1 6.123234e-17 195.6313 694.5561)" class="st0" width="97.1" height="44.7"/>
	<circle class="st0" cx="445.1" cy="298.1" r="22.3"/>
	<rect x="396.1" y="323.8" class="st0" width="97.1" height="44.7"/>
	<circle class="st0" cx="493.1" cy="346.2" r="22.3"/>
	
		<rect x="396.5" y="324.3" transform="matrix(6.123234e-17 -1 1 6.123234e-17 98.4112 791.6565)" class="st0" width="97.1" height="44.7"/>
	<circle class="st0" cx="445" cy="395.3" r="22.3"/>
	<rect x="7.6" y="420.6" class="st0" width="97.1" height="44.7"/>
	<circle class="st0" cx="7.4" cy="443" r="22.3"/>
	<circle class="st0" cx="104.6" cy="443" r="22.3"/>
	
		<rect x="8.1" y="421.1" transform="matrix(6.123234e-17 -1 1 6.123234e-17 -386.8174 500.0447)" class="st0" width="97.1" height="44.7"/>
	<circle class="st0" cx="56.6" cy="492.1" r="22.3"/>
	<rect x="7.6" y="517.8" class="st0" width="97.1" height="44.7"/>
	<circle class="st0" cx="7.5" cy="540.1" r="22.3"/>
	<circle class="st0" cx="104.6" cy="540.1" r="22.3"/>
	
		<rect x="8" y="518.2" transform="matrix(6.123234e-17 -1 1 6.123234e-17 -484.0375 597.1451)" class="st0" width="97.1" height="44.7"/>
	<circle class="st0" cx="56.6" cy="589.2" r="22.3"/>
	<rect x="104.7" y="420.7" class="st0" width="97.1" height="44.7"/>
	<circle class="st0" cx="201.7" cy="443" r="22.3"/>
	
		<rect x="105.1" y="421.1" transform="matrix(6.123234e-17 -1 1 6.123234e-17 -289.8167 597.1501)" class="st0" width="97.1" height="44.7"/>
	<circle class="st0" cx="153.7" cy="492.1" r="22.3"/>
	<rect x="104.6" y="517.9" class="st0" width="97.1" height="44.7"/>
	<circle class="st0" cx="201.6" cy="540.2" r="22.3"/>
	
		<rect x="105.1" y="518.3" transform="matrix(6.123234e-17 -1 1 6.123234e-17 -387.0368 694.2505)" class="st0" width="97.1" height="44.7"/>
	<circle class="st0" cx="153.6" cy="589.3" r="22.3"/>
	<rect x="298.9" y="420.7" class="st0" width="97.1" height="44.7"/>
	<circle class="st0" cx="395.9" cy="443" r="22.3"/>
	
		<rect x="299.4" y="421.2" transform="matrix(6.123234e-17 -1 1 6.123234e-17 -95.6322 791.4077)" class="st0" width="97.1" height="44.7"/>
	<circle class="st0" cx="347.9" cy="492.2" r="22.3"/>
	<rect x="298.9" y="517.9" class="st0" width="97.1" height="44.7"/>
	<circle class="st0" cx="395.9" cy="540.2" r="22.3"/>
	
		<rect x="299.3" y="518.3" transform="matrix(6.123234e-17 -1 1 6.123234e-17 -192.8523 888.508)" class="st0" width="97.1" height="44.7"/>
	<circle class="st0" cx="347.8" cy="589.3" r="22.3"/>
	<rect x="201.8" y="420.8" class="st0" width="97.1" height="44.7"/>
	<circle class="st0" cx="298.8" cy="443.1" r="22.3"/>
	
		<rect x="202.3" y="421.2" transform="matrix(6.123234e-17 -1 1 6.123234e-17 -192.7936 694.351)" class="st0" width="97.1" height="44.7"/>
	<circle class="st0" cx="250.8" cy="492.2" r="22.3"/>
	<rect x="201.7" y="517.9" class="st0" width="97.1" height="44.7"/>
	<circle class="st0" cx="298.7" cy="540.3" r="22.3"/>
	
		<rect x="202.2" y="518.4" transform="matrix(6.123234e-17 -1 1 6.123234e-17 -290.0137 791.4514)" class="st0" width="97.1" height="44.7"/>
	<circle class="st0" cx="250.7" cy="589.4" r="22.3"/>
	<rect x="396.1" y="420.8" class="st0" width="97.1" height="44.7"/>
	<circle class="st0" cx="493.1" cy="443.1" r="22.3"/>
	
		<rect x="396.5" y="421.2" transform="matrix(6.123234e-17 -1 1 6.123234e-17 1.4867 888.6109)" class="st0" width="97.1" height="44.7"/>
	<circle class="st0" cx="445.1" cy="492.2" r="22.3"/>
	<rect x="396" y="517.9" class="st0" width="97.1" height="44.7"/>
	<circle class="st0" cx="493" cy="540.3" r="22.3"/>
	
		<rect x="396.5" y="518.4" transform="matrix(6.123234e-17 -1 1 6.123234e-17 -95.7334 985.7113)" class="st0" width="97.1" height="44.7"/>
	<circle class="st0" cx="445" cy="589.4" r="22.3"/>
	<rect x="7.6" y="614.9" class="st0" width="97.1" height="44.7"/>
	<circle class="st0" cx="7.4" cy="637.2" r="22.3"/>
	<circle class="st0" cx="104.6" cy="637.2" r="22.3"/>
	
		<rect x="8" y="615.3" transform="matrix(6.123234e-17 -1 1 6.123234e-17 -581.1086 694.2131)" class="st0" width="97.1" height="44.7"/>
	<circle class="st0" cx="56.6" cy="686.3" r="22.3"/>
	<rect x="7.5" y="712" class="st0" width="97.1" height="44.7"/>
	<circle class="st0" cx="7.4" cy="734.4" r="22.3"/>
	<circle class="st0" cx="104.5" cy="734.4" r="22.3"/>
	
		<rect x="8" y="712.5" transform="matrix(6.123234e-17 -1 1 6.123234e-17 -678.3288 791.3134)" class="st0" width="97.1" height="44.7"/>
	<circle class="st0" cx="56.5" cy="783.5" r="22.3"/>
	<rect x="104.6" y="614.9" class="st0" width="97.1" height="44.7"/>
	<circle class="st0" cx="201.6" cy="637.2" r="22.3"/>
	
		<rect x="105.1" y="615.4" transform="matrix(6.123234e-17 -1 1 6.123234e-17 -484.1079 791.3185)" class="st0" width="97.1" height="44.7"/>
	<circle class="st0" cx="153.6" cy="686.3" r="22.3"/>
	<rect x="104.6" y="712.1" class="st0" width="97.1" height="44.7"/>
	<circle class="st0" cx="201.6" cy="734.4" r="22.3"/>
	
		<rect x="105" y="712.5" transform="matrix(6.123234e-17 -1 1 6.123234e-17 -581.3281 888.4189)" class="st0" width="97.1" height="44.7"/>
	<circle class="st0" cx="153.6" cy="783.5" r="22.3"/>
	<rect x="298.8" y="615" class="st0" width="97.1" height="44.7"/>
	<circle class="st0" cx="395.9" cy="637.3" r="22.3"/>
	
		<rect x="299.3" y="615.4" transform="matrix(6.123234e-17 -1 1 6.123234e-17 -289.9234 985.576)" class="st0" width="97.1" height="44.7"/>
	<circle class="st0" cx="347.8" cy="686.4" r="22.3"/>
	<rect x="298.8" y="712.1" class="st0" width="97.1" height="44.7"/>
	<circle class="st0" cx="395.8" cy="734.4" r="22.3"/>
	
		<rect x="299.2" y="712.6" transform="matrix(6.123234e-17 -1 1 6.123234e-17 -387.1435 1082.6764)" class="st0" width="97.1" height="44.7"/>
	<circle class="st0" cx="347.8" cy="783.5" r="22.3"/>
	<rect x="201.7" y="615" class="st0" width="97.1" height="44.7"/>
	<circle class="st0" cx="298.7" cy="637.3" r="22.3"/>
	
		<rect x="202.2" y="615.5" transform="matrix(6.123234e-17 -1 1 6.123234e-17 -387.0848 888.5193)" class="st0" width="97.1" height="44.7"/>
	<circle class="st0" cx="250.7" cy="686.4" r="22.3"/>
	<rect x="201.7" y="712.2" class="st0" width="97.1" height="44.7"/>
	<circle class="st0" cx="298.7" cy="734.5" r="22.3"/>
	
		<rect x="202.1" y="712.6" transform="matrix(6.123234e-17 -1 1 6.123234e-17 -484.3049 985.6197)" class="st0" width="97.1" height="44.7"/>
	<circle class="st0" cx="250.7" cy="783.6" r="22.3"/>
	<rect x="396" y="615" class="st0" width="97.1" height="44.7"/>
	<circle class="st0" cx="493" cy="637.3" r="22.3"/>
	
		<rect x="396.5" y="615.4" transform="matrix(6.123234e-17 -1 1 6.123234e-17 -192.8045 1082.7793)" class="st0" width="97.1" height="44.7"/>
	<circle class="st0" cx="445" cy="686.4" r="22.3"/>
	<rect x="396" y="712.2" class="st0" width="97.1" height="44.7"/>
	<circle class="st0" cx="493" cy="734.5" r="22.3"/>
	
		<rect x="396.4" y="712.6" transform="matrix(6.123234e-17 -1 1 6.123234e-17 -290.0246 1179.8796)" class="st0" width="97.1" height="44.7"/>
	<circle class="st0" cx="444.9" cy="783.6" r="22.3"/>
	<rect x="7.6" y="809" class="st0" width="97.1" height="44.7"/>
	<circle class="st0" cx="7.5" cy="831.4" r="22.3"/>
	<circle class="st0" cx="104.6" cy="831.3" r="22.3"/>
	
		<rect x="8" y="809.5" transform="matrix(6.123234e-17 -1 1 6.123234e-17 -775.2801 888.3581)" class="st0" width="97.1" height="44.7"/>
	<circle class="st0" cx="56.5" cy="880.5" r="22.3"/>
	<rect x="104.6" y="809.1" class="st0" width="97.1" height="44.7"/>
	<circle class="st0" cx="201.6" cy="831.4" r="22.3"/>
	
		<rect x="105.1" y="809.5" transform="matrix(6.123234e-17 -1 1 6.123234e-17 -678.2794 985.4636)" class="st0" width="97.1" height="44.7"/>
	<circle class="st0" cx="153.6" cy="880.5" r="22.3"/>
	<rect x="298.8" y="809.1" class="st0" width="97.1" height="44.7"/>
	<circle class="st0" cx="395.8" cy="831.4" r="22.3"/>
	
		<rect x="299.3" y="809.6" transform="matrix(6.123234e-17 -1 1 6.123234e-17 -484.0948 1179.7211)" class="st0" width="97.1" height="44.7"/>
	<circle class="st0" cx="347.8" cy="880.5" r="22.3"/>
	<rect x="201.7" y="809.2" class="st0" width="97.1" height="44.7"/>
	<circle class="st0" cx="298.7" cy="831.5" r="22.3"/>
	
		<rect x="202.2" y="809.6" transform="matrix(6.123234e-17 -1 1 6.123234e-17 -581.2562 1082.6644)" class="st0" width="97.1" height="44.7"/>
	<circle class="st0" cx="250.7" cy="880.6" r="22.3"/>
	<rect x="396" y="809.2" class="st0" width="97.1" height="44.7"/>
	<circle class="st0" cx="493" cy="831.5" r="22.3"/>
	
		<rect x="396.4" y="809.6" transform="matrix(6.123234e-17 -1 1 6.123234e-17 -386.9759 1276.9243)" class="st0" width="97.1" height="44.7"/>
	<circle class="st0" cx="445" cy="880.6" r="22.3"/>
	<rect x="493.2" y="32.5" class="st0" width="97.1" height="44.7"/>
	<circle class="st0" cx="590.2" cy="54.8" r="22.3"/>
	
		<rect x="493.7" y="33" transform="matrix(6.123234e-17 -1 1 6.123234e-17 486.902 597.5011)" class="st0" width="97.1" height="44.7"/>
	<circle class="st0" cx="542.2" cy="103.9" r="22.3"/>
	<circle class="st0" cx="542.2" cy="6.8" r="22.3"/>
	<rect x="493.2" y="129.7" class="st0" width="97.1" height="44.7"/>
	<circle class="st0" cx="590.2" cy="152" r="22.3"/>
	
		<rect x="493.6" y="130.1" transform="matrix(6.123234e-17 -1 1 6.123234e-17 389.6819 694.6015)" class="st0" width="97.1" height="44.7"/>
	<circle class="st0" cx="542.1" cy="201.1" r="22.3"/>
	<rect x="493.2" y="226.7" class="st0" width="97.1" height="44.7"/>
	<circle class="st0" cx="590.2" cy="249.1" r="22.3"/>
	
		<rect x="493.6" y="227.2" transform="matrix(6.123234e-17 -1 1 6.123234e-17 292.6108 791.6695)" class="st0" width="97.1" height="44.7"/>
	<circle class="st0" cx="542.1" cy="298.2" r="22.3"/>
	<rect x="493.1" y="323.9" class="st0" width="97.1" height="44.7"/>
	<circle class="st0" cx="590.1" cy="346.2" r="22.3"/>
	
		<rect x="493.6" y="324.3" transform="matrix(6.123234e-17 -1 1 6.123234e-17 195.3907 888.7698)" class="st0" width="97.1" height="44.7"/>
	<circle class="st0" cx="542.1" cy="395.3" r="22.3"/>
	<rect x="493.1" y="420.8" class="st0" width="97.1" height="44.7"/>
	<circle class="st0" cx="590.1" cy="443.2" r="22.3"/>
	
		<rect x="493.6" y="421.3" transform="matrix(6.123234e-17 -1 1 6.123234e-17 98.4662 985.7243)" class="st0" width="97.1" height="44.7"/>
	<circle class="st0" cx="542.1" cy="492.3" r="22.3"/>
	<rect x="493.1" y="518" class="st0" width="97.1" height="44.7"/>
	<circle class="st0" cx="590.1" cy="540.3" r="22.3"/>
	
		<rect x="493.5" y="518.4" transform="matrix(6.123234e-17 -1 1 6.123234e-17 1.2461 1082.8247)" class="st0" width="97.1" height="44.7"/>
	<circle class="st0" cx="542" cy="589.4" r="22.3"/>
	<rect x="493.1" y="615.1" class="st0" width="97.1" height="44.7"/>
	<circle class="st0" cx="590.1" cy="637.4" r="22.3"/>
	
		<rect x="493.5" y="615.5" transform="matrix(6.123234e-17 -1 1 6.123234e-17 -95.825 1179.8927)" class="st0" width="97.1" height="44.7"/>
	<circle class="st0" cx="542" cy="686.5" r="22.3"/>
	<rect x="493" y="712.2" class="st0" width="97.1" height="44.7"/>
	<circle class="st0" cx="590" cy="734.5" r="22.3"/>
	
		<rect x="493.4" y="712.7" transform="matrix(6.123234e-17 -1 1 6.123234e-17 -193.0451 1276.993)" class="st0" width="97.1" height="44.7"/>
	<circle class="st0" cx="542" cy="783.7" r="22.3"/>
	<rect x="493" y="809.2" class="st0" width="97.1" height="44.7"/>
	<circle class="st0" cx="590" cy="831.5" r="22.3"/>
	
		<rect x="493.5" y="809.7" transform="matrix(6.123234e-17 -1 1 6.123234e-17 -289.9964 1374.0377)" class="st0" width="97.1" height="44.7"/>
	<circle class="st0" cx="542" cy="880.7" r="22.3"/>
</g>
</svg>
