<?xml version="1.0" encoding="utf-8"?>
<!-- Generator: Adobe Illustrator 25.2.1, SVG Export Plug-In . SVG Version: 6.00 Build 0)  -->
<svg version="1.1" id="Ebene_1" xmlns="http://www.w3.org/2000/svg" xmlns:xlink="http://www.w3.org/1999/xlink" x="0px" y="0px"
	 viewBox="0 0 777.2 738.3" style="enable-background:new 0 0 777.2 738.3;" xml:space="preserve">
<style type="text/css">
	.st0{fill:none;stroke:#FFFFFF;stroke-miterlimit:10;}
</style>
<circle class="st0" cx="517.9" cy="91.7" r="21.1"/>
<circle class="st0" cx="472.4" cy="46.2" r="21.1"/>
<rect x="426" y="162.6" class="st0" width="92" height="42.4"/>
<circle class="st0" cx="517.9" cy="183.8" r="21.1"/>
<circle class="st0" cx="472.3" cy="230.3" r="21.1"/>
<circle class="st0" cx="425.9" cy="183.8" r="21.1"/>
<circle class="st0" cx="380.3" cy="230.3" r="21.1"/>
<rect x="518.1" y="70.5" class="st0" width="92" height="42.4"/>
<circle class="st0" cx="610" cy="91.7" r="21.1"/>
<rect x="543.3" y="46.2" class="st0" width="42.4" height="92"/>
<circle class="st0" cx="564.5" cy="138.3" r="21.1"/>
<circle class="st0" cx="564.4" cy="46.3" r="21.1"/>
<rect x="518" y="162.6" class="st0" width="92" height="42.4"/>
<ellipse transform="matrix(0.3827 -0.9239 0.9239 0.3827 206.7238 676.9225)" class="st0" cx="609.9" cy="183.8" rx="21.1" ry="21.1"/>
<rect x="543.3" y="138.2" class="st0" width="42.4" height="92"/>
<circle class="st0" cx="564.4" cy="230.3" r="21.1"/>
<circle class="st0" cx="149.7" cy="275.7" r="21.1"/>
<circle class="st0" cx="241.8" cy="275.7" r="21.1"/>
<rect x="241.8" y="254.6" class="st0" width="92" height="42.4"/>
<circle class="st0" cx="333.8" cy="275.7" r="21.1"/>
<rect x="426" y="254.6" class="st0" width="92" height="42.4"/>
<circle class="st0" cx="517.9" cy="275.7" r="21.1"/>
<rect x="451.2" y="230.2" class="st0" width="42.4" height="92"/>
<rect x="333.8" y="254.7" class="st0" width="92" height="42.4"/>
<circle class="st0" cx="425.9" cy="275.8" r="21.1"/>
<rect x="359.1" y="230.2" class="st0" width="42.4" height="92"/>
<rect x="543.2" y="230.2" class="st0" width="42.4" height="92"/>
<rect x="610" y="70.6" class="st0" width="92" height="42.4"/>
<circle class="st0" cx="701.9" cy="91.7" r="21.1"/>
<rect x="635.3" y="46.2" class="st0" width="42.4" height="92"/>
<circle class="st0" cx="656.4" cy="138.3" r="21.1"/>
<circle class="st0" cx="656.4" cy="46.3" r="21.1"/>
<rect x="610" y="162.7" class="st0" width="92" height="42.4"/>
<circle class="st0" cx="701.9" cy="183.9" r="21.1"/>
<rect x="635.2" y="138.3" class="st0" width="42.4" height="92"/>
<circle class="st0" cx="656.3" cy="230.4" r="21.1"/>
<circle class="st0" cx="701.9" cy="275.9" r="21.1"/>
<rect x="149.8" y="346.6" class="st0" width="92" height="42.4"/>
<circle class="st0" cx="149.7" cy="367.9" r="21.1"/>
<circle class="st0" cx="241.7" cy="367.8" r="21.1"/>
<rect x="175.1" y="322.2" class="st0" width="42.4" height="92"/>
<circle class="st0" cx="196.3" cy="414.3" r="21.1"/>
<circle class="st0" cx="196.3" cy="322.3" r="21.1"/>
<rect x="149.8" y="438.7" class="st0" width="92" height="42.4"/>
<circle class="st0" cx="149.7" cy="459.9" r="21.1"/>
<circle class="st0" cx="241.7" cy="459.9" r="21.1"/>
<rect x="175" y="414.3" class="st0" width="42.4" height="92"/>
<circle class="st0" cx="196.3" cy="506.4" r="21.1"/>
<rect x="241.8" y="346.7" class="st0" width="92" height="42.4"/>
<circle class="st0" cx="333.8" cy="367.9" r="21.1"/>
<rect x="267.1" y="322.3" class="st0" width="42.4" height="92"/>
<circle class="st0" cx="288.3" cy="414.4" r="21.1"/>
<circle class="st0" cx="288.3" cy="322.4" r="21.1"/>
<rect x="241.7" y="438.7" class="st0" width="92" height="42.4"/>
<circle class="st0" cx="333.7" cy="459.9" r="21.1"/>
<rect x="267" y="414.3" class="st0" width="42.4" height="92"/>
<circle class="st0" cx="288.2" cy="506.4" r="21.1"/>
<rect x="425.9" y="346.7" class="st0" width="92" height="42.4"/>
<circle class="st0" cx="517.8" cy="367.9" r="21.1"/>
<rect x="451.1" y="322.3" class="st0" width="42.4" height="92"/>
<circle class="st0" cx="472.3" cy="414.4" r="21.1"/>
<circle class="st0" cx="472.3" cy="322.4" r="21.1"/>
<rect x="425.9" y="438.8" class="st0" width="92" height="42.4"/>
<circle class="st0" cx="517.8" cy="460" r="21.1"/>
<rect x="451.1" y="414.4" class="st0" width="42.4" height="92"/>
<circle class="st0" cx="472.2" cy="506.5" r="21.1"/>
<rect x="333.9" y="346.8" class="st0" width="92" height="42.4"/>
<circle class="st0" cx="425.8" cy="368" r="21.1"/>
<rect x="359.1" y="322.3" class="st0" width="42.4" height="92"/>
<circle class="st0" cx="380.3" cy="414.5" r="21.1"/>
<circle class="st0" cx="380.3" cy="322.5" r="21.1"/>
<rect x="333.8" y="438.8" class="st0" width="92" height="42.4"/>
<circle class="st0" cx="425.8" cy="460" r="21.1"/>
<rect x="359.1" y="414.4" class="st0" width="42.4" height="92"/>
<circle class="st0" cx="380.2" cy="506.5" r="21.1"/>
<rect x="518" y="346.7" class="st0" width="92" height="42.4"/>
<circle class="st0" cx="609.9" cy="368" r="21.1"/>
<rect x="543.2" y="322.4" class="st0" width="42.4" height="92"/>
<circle class="st0" cx="564.4" cy="414.5" r="21.1"/>
<circle class="st0" cx="564.3" cy="322.5" r="21.1"/>
<rect x="517.9" y="438.8" class="st0" width="92" height="42.4"/>
<ellipse transform="matrix(0.3827 -0.9239 0.9239 0.3827 -48.5078 847.3505)" class="st0" cx="609.8" cy="460" rx="21.1" ry="21.1"/>
<circle class="st0" cx="564.3" cy="506.5" r="21.1"/>
<rect x="609.9" y="346.8" class="st0" width="92" height="42.4"/>
<circle class="st0" cx="701.8" cy="368" r="21.1"/>
<rect x="635.2" y="322.4" class="st0" width="42.4" height="92"/>
<circle class="st0" cx="656.4" cy="414.5" r="21.1"/>
<circle class="st0" cx="656.4" cy="322.5" r="21.1"/>
<circle class="st0" cx="701.8" cy="460.1" r="21.1"/>
<rect x="635.1" y="414.5" class="st0" width="42.4" height="92"/>
<circle class="st0" cx="656.3" cy="506.6" r="21.1"/>
<ellipse transform="matrix(3.827019e-03 -1 1 3.827019e-03 -403.6628 884.7559)" class="st0" cx="242.2" cy="645" rx="21.1" ry="21.1"/>
<ellipse transform="matrix(3.826969e-03 -1 1 3.826969e-03 -404.184 975.5573)" class="st0" cx="287.6" cy="690.6" rx="21.1" ry="21.1"/>
<rect x="267.3" y="507" transform="matrix(3.826990e-03 -1 1 3.826990e-03 -265.5878 839.3896)" class="st0" width="42.4" height="92"/>
<ellipse transform="matrix(3.826961e-03 -1 1 3.826961e-03 -311.1986 793.3473)" class="st0" cx="242.6" cy="552.9" rx="21.1" ry="21.1"/>
<ellipse transform="matrix(3.826961e-03 -1 1 3.826961e-03 -219.8841 885.7163)" class="st0" cx="334.6" cy="553.2" rx="21.1" ry="21.1"/>
<rect x="174.9" y="598.7" transform="matrix(3.826990e-03 -1 1 3.826990e-03 -449.4606 838.3341)" class="st0" width="42.4" height="92"/>
<ellipse transform="matrix(3.827061e-03 -1 1 3.827061e-03 -494.9763 792.1977)" class="st0" cx="150.1" cy="644.5" rx="21.1" ry="21.1"/>
<rect x="149.6" y="623.1" transform="matrix(3.826990e-03 -1 1 3.826990e-03 -449.394 837.4736)" class="st0" width="92" height="42.4"/>
<circle class="st0" cx="195.8" cy="598.2" r="21.1"/>
<ellipse transform="matrix(3.826968e-03 -1 1 3.826968e-03 -495.4034 883.0942)" class="st0" cx="195.5" cy="690.2" rx="21.1" ry="21.1"/>
<rect x="175.3" y="506.6" transform="matrix(3.826990e-03 -1 1 3.826990e-03 -356.9024 747.0206)" class="st0" width="42.4" height="92"/>
<ellipse transform="matrix(0.3862 -0.9224 0.9224 0.3862 -417.2253 478.0191)" class="st0" cx="150.6" cy="552.5" rx="21.1" ry="21.1"/>
<rect x="150" y="531.1" transform="matrix(3.826990e-03 -1 1 3.826990e-03 -357.0057 746.1777)" class="st0" width="92" height="42.4"/>
<rect x="82.9" y="598.3" transform="matrix(3.826990e-03 -1 1 3.826990e-03 -540.5859 745.9662)" class="st0" width="42.4" height="92"/>
<ellipse transform="matrix(3.826995e-03 -1 1 3.826995e-03 -586.1968 699.9238)" class="st0" cx="58.2" cy="644.2" rx="21.1" ry="21.1"/>
<rect x="57.6" y="622.7" transform="matrix(3.826990e-03 -1 1 3.826990e-03 -540.6765 745.1115)" class="st0" width="92" height="42.4"/>
<circle class="st0" cx="103.9" cy="597.8" r="21.1"/>
<ellipse transform="matrix(3.827006e-03 -1 1 3.827006e-03 -586.718 790.7252)" class="st0" cx="103.5" cy="689.8" rx="21.1" ry="21.1"/>
<rect x="83.3" y="506.2" transform="matrix(3.826990e-03 -1 1 3.826990e-03 -448.1218 654.5576)" class="st0" width="42.4" height="92"/>
<ellipse transform="matrix(3.826972e-03 -1 1 3.826972e-03 -493.7326 608.5153)" class="st0" cx="58.6" cy="552.1" rx="21.1" ry="21.1"/>
</svg>
