<?xml version="1.0" encoding="utf-8"?>
<!-- Generator: Adobe Illustrator 25.2.1, SVG Export Plug-In . SVG Version: 6.00 Build 0)  -->
<svg version="1.1" id="Ebene_1" xmlns="http://www.w3.org/2000/svg" xmlns:xlink="http://www.w3.org/1999/xlink" x="0px" y="0px"
	 viewBox="0 0 348.2 379.4" style="enable-background:new 0 0 348.2 379.4;" xml:space="preserve">
<style type="text/css">
	.st0{fill:none;stroke:#FF0000;stroke-miterlimit:10;}
	.st1{fill:none;stroke:#FF0000;stroke-width:1;stroke-miterlimit:10.0003;}
</style>
<rect x="-1231.4" y="-12.9" class="st0" width="92" height="42.4"/>
<ellipse transform="matrix(0.9871 -0.1602 0.1602 0.9871 -17.2305 -197.1259)" class="st0" cx="-1231.3" cy="8.3" rx="21.1" ry="21.1"/>
<circle class="st0" cx="-1185.7" cy="54.8" r="21.1"/>
<circle class="st0" cx="-1139.3" cy="8.3" r="21.1"/>
<circle class="st0" cx="-1093.7" cy="54.8" r="21.1"/>
<rect x="-1323.4" y="-12.9" class="st0" width="92" height="42.4"/>
<ellipse transform="matrix(0.9239 -0.3827 0.3827 0.9239 -103.909 -505.8024)" class="st1" cx="-1323.3" cy="8.3" rx="21.1" ry="21.1"/>
<circle class="st0" cx="-1277.8" cy="54.8" r="21.1"/>
<circle class="st0" cx="-1047.2" cy="100.2" r="21.1"/>
<rect x="-1231.4" y="79.1" class="st0" width="92" height="42.4"/>
<ellipse transform="matrix(0.9871 -0.1602 0.1602 0.9871 -31.9512 -195.9392)" class="st0" cx="-1231.3" cy="100.2" rx="21.1" ry="21.1"/>
<rect x="-1207" y="54.7" class="st0" width="42.4" height="92"/>
<rect x="-1139.2" y="79.2" class="st0" width="92" height="42.4"/>
<circle class="st0" cx="-1139.3" cy="100.3" r="21.1"/>
<rect x="-1114.9" y="54.7" class="st0" width="42.4" height="92"/>
<rect x="-1299" y="54.7" class="st0" width="42.4" height="92"/>
<circle class="st0" cx="-1415.3" cy="-83.8" r="21.1"/>
<rect x="-1391.1" y="-129.3" class="st0" width="42.4" height="92"/>
<circle class="st0" cx="-1369.8" cy="-37.2" r="21.1"/>
<circle class="st0" cx="-1369.8" cy="-129.2" r="21.1"/>
<rect x="-1415.4" y="-12.8" class="st0" width="92" height="42.4"/>
<circle class="st0" cx="-1415.3" cy="8.4" r="21.1"/>
<rect x="-1391" y="-37.2" class="st0" width="42.4" height="92"/>
<circle class="st0" cx="-1369.7" cy="54.9" r="21.1"/>
<circle class="st0" cx="-1415.3" cy="100.4" r="21.1"/>
<circle class="st0" cx="-1001.7" cy="146.9" r="21.1"/>
<ellipse transform="matrix(0.9871 -0.1602 0.1602 0.9871 -46.7188 -194.7327)" class="st0" cx="-1231.2" cy="192.4" rx="21.1" ry="21.1"/>
<circle class="st0" cx="-1185.7" cy="238.9" r="21.1"/>
<circle class="st0" cx="-1185.7" cy="146.9" r="21.1"/>
<ellipse transform="matrix(0.9871 -0.1602 0.1602 0.9871 -61.4715 -193.5434)" class="st0" cx="-1231.2" cy="284.5" rx="21.1" ry="21.1"/>
<circle class="st0" cx="-1093.7" cy="147" r="21.1"/>
<rect x="-1323.4" y="171.2" class="st0" width="92" height="42.4"/>
<circle class="st0" cx="-1323.3" cy="192.5" r="21.1"/>
<rect x="-1299" y="146.9" class="st0" width="42.4" height="92"/>
<circle class="st0" cx="-1277.8" cy="239" r="21.1"/>
<circle class="st0" cx="-1277.7" cy="147" r="21.1"/>
<rect x="-1323.3" y="263.3" class="st0" width="92" height="42.4"/>
<ellipse transform="matrix(0.9239 -0.3827 0.3827 0.9239 -209.6098 -484.7415)" class="st1" cx="-1323.3" cy="284.5" rx="21.1" ry="21.1"/>
<circle class="st0" cx="-1277.7" cy="331" r="21.1"/>
<rect x="-1415.3" y="171.3" class="st0" width="92" height="42.4"/>
<circle class="st0" cx="-1415.2" cy="192.5" r="21.1"/>
<rect x="-1391" y="146.9" class="st0" width="42.4" height="92"/>
<circle class="st0" cx="-1369.8" cy="239" r="21.1"/>
<circle class="st0" cx="-1369.8" cy="147" r="21.1"/>
<circle class="st0" cx="-1415.2" cy="284.6" r="21.1"/>
<rect x="-1390.9" y="239" class="st0" width="42.4" height="92"/>
<circle class="st0" cx="-1369.7" cy="331.1" r="21.1"/>
<rect x="-805.2" y="72.3" class="st0" width="92" height="42.4"/>
<circle class="st0" cx="-805.3" cy="93.6" r="21.1"/>
<ellipse transform="matrix(0.1602 -0.9871 0.9871 0.1602 -691.3845 -625.5264)" class="st0" cx="-713.3" cy="93.5" rx="21.1" ry="21.1"/>
<rect x="-779.9" y="47.9" class="st0" width="42.4" height="92"/>
<circle class="st0" cx="-758.7" cy="48" r="21.1"/>
<circle class="st0" cx="-621.2" cy="93.6" r="21.1"/>
<rect x="-687.9" y="48" class="st0" width="42.4" height="92"/>
<circle class="st0" cx="-666.7" cy="48.1" r="21.1"/>
<rect x="-529.1" y="72.4" class="st0" width="92" height="42.4"/>
<ellipse transform="matrix(0.1602 -0.9871 0.9871 0.1602 -459.6095 -352.9076)" class="st0" cx="-437.2" cy="93.6" rx="21.1" ry="21.1"/>
<rect x="-503.9" y="48" class="st0" width="42.4" height="92"/>
<circle class="st0" cx="-482.7" cy="48.1" r="21.1"/>
<rect x="-621.1" y="72.5" class="st0" width="92" height="42.4"/>
<circle class="st0" cx="-529.2" cy="93.7" r="21.1"/>
<rect x="-595.9" y="48" class="st0" width="42.4" height="92"/>
<circle class="st0" cx="-574.7" cy="48.2" r="21.1"/>
<rect x="-437" y="72.4" class="st0" width="92" height="42.4"/>
<circle class="st0" cx="-345.1" cy="93.7" r="21.1"/>
<rect x="-411.8" y="48.1" class="st0" width="42.4" height="92"/>
<circle class="st0" cx="-390.7" cy="48.2" r="21.1"/>
<rect x="-345.1" y="72.5" class="st0" width="92" height="42.4"/>
<circle class="st0" cx="-253.2" cy="93.7" r="21.1"/>
<rect x="-319.8" y="48.1" class="st0" width="42.4" height="92"/>
<circle class="st0" cx="-298.6" cy="48.2" r="21.1"/>
<rect x="-805.2" y="164.4" class="st0" width="92" height="42.4"/>
<circle class="st0" cx="-805.3" cy="185.7" r="21.1"/>
<ellipse transform="matrix(0.1602 -0.9871 0.9871 0.1602 -782.2313 -548.1893)" class="st0" cx="-713.3" cy="185.6" rx="21.1" ry="21.1"/>
<rect x="-779.9" y="140" class="st0" width="42.4" height="92"/>
<circle class="st0" cx="-758.7" cy="140.1" r="21.1"/>
<rect x="-713.2" y="164.5" class="st0" width="92" height="42.4"/>
<circle class="st0" cx="-621.2" cy="185.7" r="21.1"/>
<rect x="-687.9" y="140.1" class="st0" width="42.4" height="92"/>
<circle class="st0" cx="-666.7" cy="140.2" r="21.1"/>
<ellipse transform="matrix(0.1602 -0.9871 0.9871 0.1602 -550.4564 -275.5705)" class="st0" cx="-437.2" cy="185.7" rx="21.1" ry="21.1"/>
<rect x="-503.9" y="140.1" class="st0" width="42.4" height="92"/>
<circle class="st0" cx="-482.7" cy="140.2" r="21.1"/>
<rect x="-621.1" y="164.6" class="st0" width="92" height="42.4"/>
<circle class="st0" cx="-529.2" cy="185.8" r="21.1"/>
<rect x="-595.9" y="140.1" class="st0" width="42.4" height="92"/>
<circle class="st0" cx="-574.7" cy="140.3" r="21.1"/>
<rect x="-437" y="164.5" class="st0" width="92" height="42.4"/>
<circle class="st0" cx="-345.1" cy="185.8" r="21.1"/>
<rect x="-411.8" y="140.2" class="st0" width="42.4" height="92"/>
<circle class="st0" cx="-390.7" cy="140.3" r="21.1"/>
<rect x="-345.1" y="164.6" class="st0" width="92" height="42.4"/>
<circle class="st0" cx="-253.2" cy="185.8" r="21.1"/>
<rect x="-319.8" y="140.2" class="st0" width="42.4" height="92"/>
<circle class="st0" cx="-298.6" cy="140.3" r="21.1"/>
<circle class="st0" cx="-758.7" cy="232.3" r="21.1"/>
<circle class="st0" cx="-666.7" cy="232.4" r="21.1"/>
<circle class="st0" cx="-482.7" cy="232.4" r="21.1"/>
<circle class="st0" cx="-574.7" cy="232.5" r="21.1"/>
<circle class="st0" cx="-390.7" cy="232.5" r="21.1"/>
<circle class="st0" cx="-298.6" cy="232.5" r="21.1"/>
<rect x="-528.3" y="-19.7" class="st0" width="92" height="42.4"/>
<ellipse transform="matrix(0.9871 -0.1602 0.1602 0.9871 -7.0643 -84.59)" class="st0" cx="-528.2" cy="1.5" rx="21.1" ry="21.1"/>
<circle class="st0" cx="-436.2" cy="1.5" r="21.1"/>
<ellipse transform="matrix(0.9239 -0.3827 0.3827 0.9239 -47.7889 -237.2512)" class="st1" cx="-620.3" cy="1.5" rx="21.1" ry="21.1"/>
<circle class="st0" cx="-712.2" cy="-90.6" r="21.1"/>
<rect x="-688" y="-136.1" class="st0" width="42.4" height="92"/>
<circle class="st0" cx="-666.7" cy="-44" r="21.1"/>
<circle class="st0" cx="-666.7" cy="-136" r="21.1"/>
<rect x="-712.3" y="-19.6" class="st0" width="92" height="42.4"/>
<circle class="st0" cx="-712.2" cy="1.6" r="21.1"/>
<rect x="-687.9" y="-44" class="st0" width="42.4" height="92"/>
<ellipse transform="matrix(0.1602 -0.9871 0.9871 0.1602 -718.6237 -289.2011)" class="st0" cx="-529.3" cy="277.7" rx="21.1" ry="21.1"/>
<circle class="st0" cx="-574.8" cy="324.2" r="21.1"/>
<ellipse transform="matrix(0.1602 -0.9871 0.9871 0.1602 -809.5345 -211.8539)" class="st0" cx="-529.3" cy="369.8" rx="21.1" ry="21.1"/>
<rect x="-529.1" y="256.5" class="st0" width="92" height="42.4"/>
<circle class="st0" cx="-437.2" cy="277.8" r="21.1"/>
<rect x="-503.9" y="232.2" class="st0" width="42.4" height="92"/>
<circle class="st0" cx="-482.7" cy="324.3" r="21.1"/>
<rect x="-529.2" y="348.6" class="st0" width="92" height="42.4"/>
<ellipse transform="matrix(0.3827 -0.9239 0.9239 0.3827 -611.5621 -175.6383)" class="st1" cx="-437.2" cy="369.8" rx="21.1" ry="21.1"/>
<circle class="st0" cx="-482.8" cy="416.3" r="21.1"/>
<rect x="-437.2" y="256.6" class="st0" width="92" height="42.4"/>
<circle class="st0" cx="-345.3" cy="277.8" r="21.1"/>
<rect x="-411.9" y="232.2" class="st0" width="42.4" height="92"/>
<circle class="st0" cx="-390.7" cy="324.3" r="21.1"/>
<circle class="st0" cx="-345.3" cy="369.9" r="21.1"/>
<rect x="-412" y="324.3" class="st0" width="42.4" height="92"/>
<circle class="st0" cx="-390.8" cy="416.4" r="21.1"/>
<circle class="st0" cx="503.6" cy="54.8" r="21.1"/>
<rect x="574.4" y="54.9" class="st0" width="42.4" height="92"/>
<circle class="st0" cx="595.5" cy="54.9" r="21.1"/>
<circle class="st0" cx="641.1" cy="100.4" r="21.1"/>
<ellipse transform="matrix(0.1602 -0.9871 0.9871 0.1602 193.8661 612.6834)" class="st0" cx="457" cy="192.4" rx="21.1" ry="21.1"/>
<rect x="457.2" y="171.2" class="st0" width="92" height="42.4"/>
<circle class="st0" cx="549.1" cy="192.5" r="21.1"/>
<rect x="482.4" y="146.9" class="st0" width="42.4" height="92"/>
<circle class="st0" cx="503.6" cy="239" r="21.1"/>
<circle class="st0" cx="503.5" cy="147" r="21.1"/>
<rect x="549.1" y="171.3" class="st0" width="92" height="42.4"/>
<rect x="549" y="79.1" class="st0" width="92" height="42.4"/>
<circle class="st0" cx="641" cy="192.5" r="21.1"/>
<rect x="574.4" y="146.9" class="st0" width="42.4" height="92"/>
<circle class="st0" cx="595.6" cy="239" r="21.1"/>
<circle class="st0" cx="595.6" cy="147" r="21.1"/>
<circle class="st0" cx="641" cy="284.6" r="21.1"/>
<circle class="st0" cx="548.9" cy="100.2" r="21.1"/>
<circle class="st0" cx="-239" cy="81.5" r="21.1"/>
<rect x="220.9" y="60.3" class="st0" width="92" height="42.4"/>
<ellipse transform="matrix(0.9871 -0.1602 0.1602 0.9871 -10.2072 36.4561)" class="st0" cx="221" cy="81.5" rx="21.1" ry="21.1"/>
<circle class="st0" cx="313" cy="81.6" r="21.1"/>
<rect x="128.8" y="60.3" class="st0" width="92" height="42.4"/>
<circle class="st0" cx="128.9" cy="81.6" r="21.1"/>
<rect x="153.2" y="36" class="st0" width="42.4" height="92"/>
<circle class="st0" cx="174.5" cy="36.1" r="21.1"/>
<rect x="36.9" y="60.4" class="st0" width="92" height="42.4"/>
<circle class="st0" cx="37" cy="81.6" r="21.1"/>
<rect x="61.2" y="36" class="st0" width="42.4" height="92"/>
<circle class="st0" cx="82.4" cy="36.1" r="21.1"/>
<circle class="st0" cx="-239" cy="173.6" r="21.1"/>
<ellipse transform="matrix(0.9871 -0.1602 0.1602 0.9871 -24.9535 37.6407)" class="st0" cx="221" cy="173.6" rx="21.1" ry="21.1"/>
<rect x="128.8" y="152.4" class="st0" width="92" height="42.4"/>
<circle class="st0" cx="128.9" cy="173.7" r="21.1"/>
<circle class="st0" cx="174.5" cy="128.2" r="21.1"/>
<rect x="36.9" y="152.5" class="st0" width="92" height="42.4"/>
<circle class="st0" cx="37" cy="173.7" r="21.1"/>
<rect x="61.2" y="128.1" class="st0" width="42.4" height="92"/>
<circle class="st0" cx="82.4" cy="128.2" r="21.1"/>
<circle class="st0" cx="174.5" cy="220.3" r="21.1"/>
<circle class="st0" cx="82.4" cy="220.3" r="21.1"/>
<circle class="st0" cx="221" cy="265.7" r="21.1"/>
<rect x="129" y="244.5" class="st0" width="92" height="42.4"/>
<circle class="st0" cx="129.1" cy="265.7" r="21.1"/>
<rect x="153.3" y="220.1" class="st0" width="42.4" height="92"/>
<circle class="st0" cx="174.5" cy="312.2" r="21.1"/>
</svg>
